<svg width="70" height="70" viewBox="0 0 70 70" fill="none" xmlns="http://www.w3.org/2000/svg">
<path d="M32.5251 53.4749C33.892 54.8417 36.108 54.8417 37.4749 53.4749L59.7487 31.201C61.1156 29.8342 61.1156 27.6181 59.7487 26.2513C58.3819 24.8844 56.1658 24.8844 54.799 26.2513L35 46.0503L15.201 26.2513C13.8342 24.8844 11.6181 24.8844 10.2513 26.2513C8.88443 27.6181 8.88443 29.8342 10.2513 31.201L32.5251 53.4749ZM31.5 0L31.5 51H38.5V0L31.5 0Z" fill="white"/>
<path fill-rule="evenodd" clip-rule="evenodd" d="M7 53C7 51.8954 6.10457 51 5 51H2C0.89543 51 0 51.8954 0 53V68C0 69.1046 0.895431 70 2 70H68C69.1046 70 70 69.1046 70 68V53C70 51.8954 69.1046 51 68 51H65C63.8954 51 63 51.8954 63 53V61C63 62.1046 62.1046 63 61 63H9C7.89543 63 7 62.1046 7 61V53Z" fill="white"/>
</svg>
